HIERARCHY
ROOT hip
{
	OFFSET 0.000000 0.000000 0.000000 
	CHANNELS 6 Xposition Yposition Zposition Xrotation Zrotation Yrotation
	JOINT abdomen
	{
		OFFSET 0.000000 3.402643 0.000000 
		CHANNELS 3 Xrotation Zrotation Yrotation
		JOINT chest
		{
			OFFSET 0.000000 8.438565 -0.680529 
			CHANNELS 3 Xrotation Zrotation Yrotation
			JOINT neck
			{
				OFFSET 0.000000 10.207942 -0.272212 
				CHANNELS 3 Xrotation Zrotation Yrotation
				JOINT head
				{
					OFFSET 0.000000 3.130431 0.000000 
					CHANNELS 3 Xrotation Zrotation Yrotation
					End Site
					{
						OFFSET 0.000000 3.130435 0.000000 
					}
				}
			}
			JOINT lCollar
			{
				OFFSET 3.470700 6.669187 -0.816635 
				CHANNELS 3 Yrotation Zrotation Xrotation
				JOINT lShldr
				{
					OFFSET 3.198488 0.000000 0.000000 
					CHANNELS 3 Zrotation Yrotation Xrotation
					JOINT lForeArm
					{
						OFFSET 10.139888 0.000000 0.000000 
						CHANNELS 3 Yrotation Zrotation Xrotation
						JOINT lHand
						{
							OFFSET 8.370511 0.000000 0.000000 
							CHANNELS 3 Zrotation Yrotation Xrotation
							End Site
							{
								OFFSET 4.083176 0.000000 0.000000 
							}
						}
					}
				}
			}
			JOINT rCollar
			{
				OFFSET -3.470700 6.669187 -0.816635 
				CHANNELS 3 Yrotation Zrotation Xrotation
				JOINT rShldr
				{
					OFFSET -3.198488 0.000000 0.000000 
					CHANNELS 3 Zrotation Yrotation Xrotation
					JOINT rForeArm
					{
						OFFSET -10.139888 0.000000 0.000000 
						CHANNELS 3 Yrotation Zrotation Xrotation
						JOINT rHand
						{
							OFFSET -8.370511 0.000000 0.000000 
							CHANNELS 3 Zrotation Yrotation Xrotation
							End Site
							{
								OFFSET -4.083176 0.000000 0.000000 
							}
						}
					}
				}
			}
		}
	}
	JOINT lThigh
	{
		OFFSET 5.308129 -1.633274 1.361059 
		CHANNELS 3 Xrotation Zrotation Yrotation
		JOINT lShin
		{
			OFFSET -2.041588 -20.007561 0.000000 
			CHANNELS 3 Xrotation Zrotation Yrotation
			JOINT lFoot
			{
				OFFSET 0.000000 -19.190928 -1.224953 
				CHANNELS 3 Xrotation Yrotation Zrotation
				End Site
				{
					OFFSET 0.000000 -2.449906 4.627600 
				}
			}
		}
	}
	JOINT rThigh
	{
		OFFSET -5.308129 -1.633274 1.361059 
		CHANNELS 3 Xrotation Zrotation Yrotation
		JOINT rShin
		{
			OFFSET 2.041588 -20.007561 0.000000 
			CHANNELS 3 Xrotation Zrotation Yrotation
			JOINT rFoot
			{
				OFFSET 0.000000 -19.190928 -1.224953 
				CHANNELS 3 Xrotation Yrotation Zrotation
				End Site
				{
					OFFSET 0.000000 -2.449906 4.627600 
				}
			}
		}
	}
}
MOTION
Frames: 20
Frame Time: 0.016667
-0.630339 45.983761 54.921562 0.957031 1.093750 -0.917782 0.000000 0.000000 0.000000 0.615234 -0.263672 0.126908 6.914063 -3.925781 1.190738 -4.101563 6.054688 -1.209908 -5.869141 -25.000000 1.176004 -54.326172 -10.478517 -5.849610 -2.890625 -13.525391 57.170250 20.966797 0.488281 -7.578052 2.060547 22.900391 2.236328 61.552734 14.267578 -0.544468 5.361329 13.955079 56.843349 -9.755859 -0.390625 -6.406250 0.760874 5.651675 11.196867 4.252262 -0.634022 -10.856295 -6.304927 -0.395891 3.824590 0.038935 -5.174930 -9.188251 4.687629 0.408304 10.528356 -5.458402 0.529524 -6.140867 
-0.630339 45.983761 54.715744 1.503906 1.064453 -1.230287 0.000000 0.000000 0.000000 0.703125 -0.253906 0.195313 6.826171 -3.925781 1.503906 -4.619141 5.859375 -1.258769 -5.410157 -25.000000 1.572266 -54.189453 -11.103515 -4.394531 -3.945313 -13.701172 55.507813 20.351561 0.488281 -7.509777 2.080078 22.958984 2.626953 61.621094 14.990235 0.605469 5.917969 13.945313 56.042564 -10.214844 -0.214844 -6.484375 -0.244451 5.656631 10.849065 4.653901 -0.497236 -10.245545 -6.248733 -0.375321 3.747852 -1.015443 -5.033443 -8.623170 4.925803 0.215650 10.230903 -5.302691 0.558015 -5.998537 
-0.620781 45.983761 54.398373 2.333984 1.083984 -1.318359 0.000000 0.000000 0.000000 0.810547 -0.244141 0.185547 6.884766 -4.150391 1.571559 -5.371093 5.966797 -1.307579 -5.253907 -25.000000 2.089844 -54.062500 -11.523438 -1.904297 -6.064453 -13.779297 52.441406 20.087893 0.371094 -7.509701 1.826172 23.095703 3.095703 61.650394 15.771484 4.192108 7.656250 13.906250 53.017582 -10.683594 -0.185547 -6.533203 -1.816305 5.545309 10.171615 5.176642 -0.275565 -9.460889 -6.101180 -0.374191 3.736322 -2.615195 -5.053080 -8.061432 5.474597 0.069030 9.847666 -5.134352 0.505628 -5.933507 
-0.595682 45.983761 53.976124 3.583984 1.162109 -1.279297 0.000000 0.000000 0.000000 0.927734 -0.224609 0.126953 6.923828 -4.296875 1.425799 -6.552734 5.937500 -1.376953 -5.234375 -25.000000 2.617188 -54.189449 -12.158203 1.589742 -8.574219 -13.525390 48.779297 20.917971 0.332031 -7.607364 1.367187 23.037107 3.593750 61.914059 16.660156 9.931641 10.537109 13.378908 48.073910 -11.132813 -0.312500 -6.572318 -4.127169 5.403439 9.284526 5.970709 0.027284 -8.730596 -5.882934 -0.323304 3.650089 -4.940341 -5.047390 -7.261786 6.348445 -0.203296 9.148160 -4.958874 0.479039 -5.751092 
-0.564278 45.958851 53.425400 5.156250 1.308594 -1.386719 0.000000 0.000000 0.000000 1.093750 -0.273438 0.136719 6.884765 -4.277344 1.455078 -7.900391 5.673828 -1.445313 -4.921875 -25.000000 3.392801 -54.580078 -13.134766 7.031250 -11.689452 -12.734375 43.556839 21.191406 0.585938 -7.587791 0.937500 22.919922 4.341899 62.207035 17.792969 17.991266 14.082032 12.011720 40.857342 -11.621094 -0.507813 -6.601563 -7.089810 5.175845 8.224073 7.136093 0.369349 -7.655758 -5.654135 -0.327662 3.422532 -8.080280 -5.025039 -6.151060 7.748155 -0.632188 8.249500 -4.896214 0.471284 -5.381964 
-0.529430 45.886868 52.800308 7.031250 1.445313 -1.288816 0.000000 0.000000 0.000000 1.269531 -0.351563 0.097656 6.728516 -4.140625 1.308594 -9.199219 5.498047 -1.503906 -4.853515 -25.000000 4.193582 -55.400391 -14.238280 12.548829 -14.755858 -11.396483 38.761696 20.869139 0.732422 -7.529295 0.546875 22.773438 5.117188 62.578125 18.720703 28.505861 18.212891 9.140626 31.863686 -12.158203 -1.044922 -6.582208 -10.749798 4.949868 6.990972 8.771832 0.748970 -6.566979 -5.593800 -0.285321 3.089311 -11.731062 -5.035500 -5.009193 9.477720 -0.973885 7.257616 -4.888633 0.439801 -5.225508 
-0.491306 45.781399 52.134697 9.101563 1.523438 -1.005600 0.000000 0.000000 0.000000 1.474609 -0.351563 0.039003 6.630859 -4.248047 1.161386 -10.273438 5.546875 -1.679688 -4.814454 -25.000000 5.107422 -56.064449 -15.458984 19.597006 -17.705080 -9.462891 33.369141 21.240234 0.742188 -7.558610 0.195313 22.373034 5.972848 63.291019 19.384766 39.817692 22.060547 4.716797 22.675781 -12.695313 -1.406250 -6.591797 -14.810946 4.754461 5.748752 10.737235 1.090941 -5.596874 -5.642346 -0.257165 2.750776 -15.747722 -5.135494 -3.855863 11.484674 -1.062617 6.166242 -4.904693 0.411110 -5.046914 
-0.446255 45.641125 51.432259 11.582031 1.738281 -0.781250 0.000000 0.000000 0.000000 1.650391 -0.371094 0.019468 6.562500 -4.492188 1.132813 -11.210938 5.478516 -1.855469 -4.736328 -25.000000 5.863503 -56.259766 -16.416016 30.185547 -21.562500 -5.986328 25.068359 21.757814 1.093750 -7.529108 0.029297 22.041012 6.705320 63.652344 20.000002 48.906254 25.302734 0.146484 15.615211 -12.968749 -1.650391 -6.582311 -19.413551 4.580276 4.143396 12.862457 1.070704 -4.253196 -5.661020 -0.237682 2.567813 -20.435942 -5.467845 -2.564847 13.856404 -0.898413 5.030529 -5.022705 0.387251 -4.867607 
-0.397333 45.456161 50.699913 14.169923 1.953125 -0.653964 0.000000 0.000000 0.000000 1.845703 -0.439453 0.048753 7.119140 -4.375000 1.083984 -12.431641 4.970703 -1.953125 -4.501953 -25.000000 6.752175 -56.728516 -17.470703 39.196285 -25.019529 -2.246094 18.750383 22.138672 1.494141 -7.490235 0.019531 21.855469 7.597657 63.789063 20.449217 51.136227 28.251953 -1.894531 15.556965 -13.369141 -1.660156 -6.621093 -24.295437 4.492230 2.044455 15.259254 0.553752 -2.371973 -5.705957 -0.266840 2.853410 -25.346889 -5.780538 -1.232177 16.313755 -0.614840 3.891086 -5.235968 0.401884 -4.885311 
-0.365406 45.247719 49.977448 16.445313 1.884766 -0.556319 0.000000 0.000000 0.000000 2.148438 -0.429688 0.078125 8.251954 -4.296875 1.210206 -12.988281 4.824218 -2.157382 -3.994141 -25.000000 8.090065 -57.353516 -18.603516 42.360168 -27.763672 -0.693359 18.164061 22.695313 1.621094 -7.519532 0.156250 21.894524 8.853785 63.828125 20.576170 49.101559 31.542969 -2.197266 19.648436 -13.916016 -1.542969 -6.689716 -28.923956 4.716266 -0.199180 17.715143 -0.205596 -0.589443 -5.817425 -0.228341 3.030839 -29.694021 -5.809973 -0.429653 18.342930 -0.322016 3.238959 -5.243940 0.434951 -4.966816 
-0.348732 45.011871 49.283592 18.730469 1.806641 -0.380859 0.000000 0.000000 0.000000 2.431640 -0.478516 0.068359 9.921875 -3.945313 1.337219 -12.988281 4.619141 -2.167182 -3.603516 -25.000000 9.349832 -58.095703 -19.335939 41.728519 -30.468750 -0.576172 21.357553 22.753906 1.923828 -7.451171 0.205078 22.119141 10.068359 63.583988 20.712891 47.991737 34.736328 -2.568359 22.753906 -14.121095 -1.582031 -6.708985 -33.557934 4.911055 -2.694260 20.173306 -1.071338 1.403231 -5.989586 -0.252581 3.010920 -34.047817 -5.858706 -0.417931 20.503729 -0.165911 3.302200 -5.303885 0.442956 -5.070377 
-0.338066 44.731087 48.604752 20.810547 1.875000 -0.273438 0.000000 0.000000 0.000000 2.753906 -0.556641 0.058594 12.001952 -3.496094 1.455078 -12.031249 4.345703 -2.030510 -3.105469 -25.000000 10.717018 -58.808598 -19.570314 40.781250 -33.466801 -0.351563 25.468750 22.265627 2.353516 -7.304335 0.029297 22.119139 11.422106 63.613281 20.771486 47.089844 37.636719 -2.949219 25.820816 -13.974609 -1.767578 -6.669922 -37.950962 4.970097 -4.747665 22.614244 -2.060970 3.089602 -6.213636 -0.303247 3.288857 -38.333477 -6.024293 -0.842418 23.008715 -0.247452 3.964621 -5.591548 0.460808 -5.140892 
-0.328365 44.415497 47.970840 22.617188 1.992188 -0.136379 0.000000 0.000000 0.000000 3.115234 -0.615234 -0.019531 14.257813 -3.398438 1.533203 -10.078123 4.541015 -1.854696 -2.548828 -25.000000 12.308815 -59.121094 -19.472656 39.664719 -36.738281 -0.107422 29.960953 21.748049 2.597656 -7.206587 -0.263672 21.777342 12.926064 64.121094 20.634766 46.005859 40.478519 -3.359375 29.834557 -13.574218 -2.197266 -6.562875 -42.011471 5.058304 -5.763741 25.063288 -3.017133 3.655096 -6.521022 -0.322177 3.710003 -42.367088 -6.200639 -1.360590 25.569416 -0.448737 4.620361 -5.992326 0.458731 -5.232346 
-0.311991 44.069874 47.382580 24.423830 1.914063 0.205404 0.000000 0.000000 0.000000 3.447266 -0.664056 -0.136833 16.835938 -3.027344 1.464328 -8.300781 4.755859 -1.649581 -2.109375 -25.000000 13.769531 -59.638672 -18.925783 38.356209 -40.322266 0.175781 34.755814 21.132813 3.037109 -7.060546 -0.830078 21.894533 14.355468 64.238281 20.068359 45.130302 43.720703 -3.837891 34.297523 -13.076172 -2.890625 -6.426272 -46.102879 5.146285 -5.903585 27.712349 -3.516205 3.136886 -6.890543 -0.395684 3.915692 -46.293129 -6.386400 -2.060229 28.183409 -0.698594 5.082698 -6.509903 0.525100 -5.284597 
-0.283827 43.689823 46.843536 26.005857 1.806641 0.566406 0.000000 0.000000 0.000000 3.818359 -0.693359 -0.146484 19.218752 -2.763672 1.386248 -5.302734 5.126954 -1.747174 -1.474609 -25.000000 15.355689 -60.253906 -18.173826 37.333981 -44.208984 0.449219 39.589767 20.605471 3.417969 -6.942775 -1.269531 21.943359 15.914320 64.326172 18.994141 43.938728 47.519527 -4.257813 38.212891 -12.900391 -3.847656 -6.279296 -49.919678 5.087677 -5.775663 30.469398 -3.632638 2.505672 -7.449602 -0.423032 4.005109 -50.026299 -6.601287 -2.633738 30.963297 -0.946978 5.519321 -7.056578 0.556122 -5.448933 
-0.251207 43.278774 46.335121 27.587891 1.845703 0.820312 0.000000 0.000000 0.000000 4.169922 -0.722656 -0.156250 20.976561 -2.978516 1.445313 -0.966797 5.869140 -1.767578 -0.722656 -25.000000 16.816404 -60.097660 -16.884766 36.357418 -48.525391 0.693359 44.072144 20.527344 3.710938 -6.865235 -1.513672 21.757813 17.324219 64.345703 17.490234 42.929684 51.748047 -4.667969 41.612122 -12.910156 -4.160156 -6.220703 -53.669342 4.882402 -5.654569 33.180431 -3.682900 2.093494 -8.080347 -0.459701 4.058759 -53.809715 -6.844866 -2.880998 33.793877 -1.210380 5.863291 -7.686307 0.610063 -5.604164 
-0.219316 42.848896 45.846607 29.296877 1.855469 0.879222 0.000000 0.000000 0.000000 4.462891 -0.761719 -0.175911 23.125000 -3.105469 1.620565 1.982422 6.435547 -1.650391 0.058594 -25.000000 18.021709 -59.824219 -15.087892 35.351563 -52.958984 0.927734 48.681641 20.507813 4.042969 -6.787110 -1.738281 21.865234 18.496092 63.857418 15.585938 42.500000 56.201172 -5.185547 46.836819 -12.871094 -4.306641 -6.201905 -57.540661 4.872869 -5.371680 35.956196 -3.732249 1.612882 -8.702194 -0.533393 4.137756 -57.662609 -6.982435 -3.028135 36.463367 -1.456765 6.068957 -8.311990 0.630169 -5.624827 
-0.193382 42.401142 45.375496 30.800783 1.923828 0.937828 0.000000 0.000000 0.000000 4.736328 -0.859375 -0.263672 25.742188 -3.066406 1.757813 3.837891 6.582031 -1.328125 0.742188 -25.000000 19.203344 -59.794926 -13.007813 34.443359 -57.353516 1.171875 53.300579 20.527344 4.677734 -6.660155 -1.894531 21.269531 19.586300 63.769535 13.808595 42.433971 60.429688 -5.664063 52.569324 -13.603516 -4.521484 -6.231237 -61.170738 4.794780 -5.201073 38.657837 -3.771120 1.271461 -9.299817 -0.590840 4.245440 -61.291412 -7.157699 -3.065593 39.082119 -1.712637 6.296915 -8.877558 0.681093 -5.683870 
-0.176876 41.962215 44.914276 32.001953 1.845703 1.006174 0.000000 0.000000 0.000000 5.058594 -0.908203 -0.371249 28.320311 -2.783203 1.923828 5.449219 6.464844 -0.858275 1.269531 -25.000000 20.566404 -59.570316 -10.664063 33.320313 -61.669922 1.464844 58.886471 21.425781 5.185547 -6.611329 -2.314453 20.605469 20.855936 63.593754 12.382813 42.326313 64.882813 -5.966797 55.792030 -15.468749 -5.214844 -6.250888 -64.402435 4.784967 -5.160507 41.162853 -3.770932 0.896247 -9.805344 -0.591177 4.325468 -64.449524 -7.236235 -3.215667 41.395546 -1.923718 6.638477 -9.288943 0.710716 -5.880082 
-0.162729 41.552113 44.449005 33.164063 1.748047 1.064453 0.000000 0.000000 0.000000 5.419921 -0.917969 -0.429688 31.083982 -2.392578 1.933594 5.976563 6.064453 -0.400391 1.689453 -25.000000 22.050781 -59.082031 -8.388672 32.156784 -66.005859 1.748047 64.589851 22.871094 5.273438 -6.689557 -2.949219 20.195314 22.275389 63.007813 11.064454 41.845703 69.375000 -6.181641 57.657303 -17.050779 -5.849610 -6.241230 -67.434113 4.775506 -5.199652 43.306900 -3.808224 0.689541 -10.134294 -0.650278 4.483829 -67.406815 -7.372911 -3.455839 43.331169 -2.111206 6.912695 -9.506120 0.761847 -5.955736 
